<mxfile host="app.diagrams.net" modified="2022-08-06T02:59:46.426Z" agent="5.0 (Macintosh; Intel Mac OS X 10_15_7) AppleWebKit/537.36 (KHTML, like Gecko) Chrome/104.0.0.0 Safari/537.36" etag="Nr6nus78RQIPVXz1tPqQ" version="20.2.2" type="github">
  <diagram id="3228e29e-7158-1315-38df-8450db1d8a1d" name="Page-1">
    <mxGraphModel dx="923" dy="1163" grid="0" gridSize="10" guides="1" tooltips="1" connect="1" arrows="1" fold="1" page="1" pageScale="1" pageWidth="600" pageHeight="250" background="#EFF1F3" math="0" shadow="0">
      <root>
        <mxCell id="0" />
        <mxCell id="1" parent="0" />
        <mxCell id="I8ODeFikB3_Pxrsl2uY8-1" value="" style="rounded=1;whiteSpace=wrap;html=1;fillColor=#123F67;strokeColor=none;" parent="1" vertex="1">
          <mxGeometry x="50" y="53" width="100" height="144" as="geometry" />
        </mxCell>
        <mxCell id="I8ODeFikB3_Pxrsl2uY8-3" value="&lt;font color=&quot;#ffffff&quot;&gt;&lt;b&gt;发送方IP&lt;/b&gt;&lt;/font&gt;" style="text;html=1;strokeColor=none;fillColor=none;align=center;verticalAlign=middle;whiteSpace=wrap;rounded=0;" parent="1" vertex="1">
          <mxGeometry x="70" y="137.5" width="60" height="30" as="geometry" />
        </mxCell>
        <mxCell id="I8ODeFikB3_Pxrsl2uY8-4" value="" style="rounded=1;whiteSpace=wrap;html=1;fillColor=#35699A;strokeColor=none;" parent="1" vertex="1">
          <mxGeometry x="150" y="53" width="100" height="144" as="geometry" />
        </mxCell>
        <mxCell id="I8ODeFikB3_Pxrsl2uY8-6" value="&lt;font color=&quot;#ffffff&quot;&gt;&lt;b&gt;发送方端口&lt;/b&gt;&lt;/font&gt;" style="text;html=1;strokeColor=none;fillColor=none;align=center;verticalAlign=middle;whiteSpace=wrap;rounded=0;" parent="1" vertex="1">
          <mxGeometry x="168" y="137.5" width="64" height="30" as="geometry" />
        </mxCell>
        <mxCell id="I8ODeFikB3_Pxrsl2uY8-7" value="" style="rounded=1;whiteSpace=wrap;html=1;fillColor=#538AAF;strokeColor=none;" parent="1" vertex="1">
          <mxGeometry x="250" y="53" width="100" height="144" as="geometry" />
        </mxCell>
        <mxCell id="I8ODeFikB3_Pxrsl2uY8-9" value="&lt;font color=&quot;#ffffff&quot;&gt;&lt;b&gt;Protocol&lt;/b&gt;&lt;/font&gt;" style="text;html=1;strokeColor=none;fillColor=none;align=center;verticalAlign=middle;whiteSpace=wrap;rounded=0;" parent="1" vertex="1">
          <mxGeometry x="270" y="137.5" width="60" height="30" as="geometry" />
        </mxCell>
        <mxCell id="I8ODeFikB3_Pxrsl2uY8-10" value="" style="rounded=1;whiteSpace=wrap;html=1;fillColor=#7EC4C3;strokeColor=none;" parent="1" vertex="1">
          <mxGeometry x="450" y="53" width="100" height="144" as="geometry" />
        </mxCell>
        <mxCell id="I8ODeFikB3_Pxrsl2uY8-12" value="&lt;font color=&quot;#ffffff&quot;&gt;&lt;b&gt;接收方IP&lt;/b&gt;&lt;/font&gt;" style="text;html=1;strokeColor=none;fillColor=none;align=center;verticalAlign=middle;whiteSpace=wrap;rounded=0;" parent="1" vertex="1">
          <mxGeometry x="470" y="139.5" width="60" height="30" as="geometry" />
        </mxCell>
        <mxCell id="ooLZxVJ6NlXsPmtM5IMD-4" value="" style="rounded=1;whiteSpace=wrap;html=1;fillColor=#4A919B;strokeColor=none;" parent="1" vertex="1">
          <mxGeometry x="350" y="53" width="100" height="144" as="geometry" />
        </mxCell>
        <mxCell id="ooLZxVJ6NlXsPmtM5IMD-6" value="&lt;font color=&quot;#ffffff&quot;&gt;&lt;b&gt;接收方端口&lt;/b&gt;&lt;/font&gt;" style="text;html=1;strokeColor=none;fillColor=none;align=center;verticalAlign=middle;whiteSpace=wrap;rounded=0;" parent="1" vertex="1">
          <mxGeometry x="366" y="139.5" width="68" height="30" as="geometry" />
        </mxCell>
        <mxCell id="ooLZxVJ6NlXsPmtM5IMD-8" value="&lt;span style=&quot;font-size: 22px;&quot;&gt;&lt;b&gt;协议&lt;/b&gt;&lt;/span&gt;" style="ellipse;whiteSpace=wrap;html=1;aspect=fixed;fillColor=#FFFFFF;strokeColor=none;" parent="1" vertex="1">
          <mxGeometry x="278" y="86" width="51.5" height="51.5" as="geometry" />
        </mxCell>
        <mxCell id="ooLZxVJ6NlXsPmtM5IMD-9" value="&lt;span style=&quot;font-size: 22px;&quot;&gt;&lt;b&gt;Port&lt;/b&gt;&lt;/span&gt;" style="ellipse;whiteSpace=wrap;html=1;aspect=fixed;fillColor=#FFFFFF;strokeColor=none;" parent="1" vertex="1">
          <mxGeometry x="174.25" y="83.5" width="51.5" height="51.5" as="geometry" />
        </mxCell>
        <mxCell id="ooLZxVJ6NlXsPmtM5IMD-10" value="&lt;span style=&quot;font-size: 22px;&quot;&gt;&lt;b&gt;IP&lt;/b&gt;&lt;/span&gt;" style="ellipse;whiteSpace=wrap;html=1;aspect=fixed;fillColor=#FFFFFF;strokeColor=none;" parent="1" vertex="1">
          <mxGeometry x="74.25" y="83.5" width="51.5" height="51.5" as="geometry" />
        </mxCell>
        <mxCell id="ooLZxVJ6NlXsPmtM5IMD-11" value="&lt;span style=&quot;font-size: 22px;&quot;&gt;&lt;b&gt;Port&lt;/b&gt;&lt;/span&gt;" style="ellipse;whiteSpace=wrap;html=1;aspect=fixed;fillColor=#FFFFFF;strokeColor=none;" parent="1" vertex="1">
          <mxGeometry x="374.25" y="86" width="51.5" height="51.5" as="geometry" />
        </mxCell>
        <mxCell id="ooLZxVJ6NlXsPmtM5IMD-12" value="&lt;span style=&quot;font-size: 22px;&quot;&gt;&lt;b&gt;IP&lt;/b&gt;&lt;/span&gt;" style="ellipse;whiteSpace=wrap;html=1;aspect=fixed;fillColor=#FFFFFF;strokeColor=none;" parent="1" vertex="1">
          <mxGeometry x="474.25" y="86" width="51.5" height="51.5" as="geometry" />
        </mxCell>
      </root>
    </mxGraphModel>
  </diagram>
</mxfile>
